<svg xmlns="http://www.w3.org/2000/svg" width="720" height="420" viewBox="0 0 720 420">
<rect width="100%" height="100%" fill="white"/>
<line x1="60" y1="360" x2="660" y2="360" stroke="black"/>
<line x1="60" y1="60" x2="60" y2="360" stroke="black"/>
<text x="360.0" y="405" text-anchor="middle" font-family="Arial" font-size="14">Mean latency (s)</text>
<text x="18" y="210.0" transform="rotate(-90 18 210.0)" text-anchor="middle" font-family="Arial" font-size="14">Exact match</text>
<circle cx="60.0" cy="285.0" r="5" fill="#2563eb"/>
<text x="68.0" y="277.0" font-family="Arial" font-size="12">ablation_fixed_chart_code</text>
<circle cx="60.0" cy="285.0" r="5" fill="#2563eb"/>
<text x="68.0" y="277.0" font-family="Arial" font-size="12">full_evochartcode_metadata</text>
<circle cx="60.0" cy="285.0" r="5" fill="#2563eb"/>
<text x="68.0" y="277.0" font-family="Arial" font-size="12">ablation_no_derived_relations</text>
<circle cx="60.0" cy="285.0" r="5" fill="#2563eb"/>
<text x="68.0" y="277.0" font-family="Arial" font-size="12">ablation_no_uncertainty</text>
<circle cx="60.0" cy="285.0" r="5" fill="#2563eb"/>
<text x="68.0" y="277.0" font-family="Arial" font-size="12">ablation_no_verifier</text>
<circle cx="60.0" cy="285.0" r="5" fill="#2563eb"/>
<text x="68.0" y="277.0" font-family="Arial" font-size="12">code_only</text>
<circle cx="501.1" cy="60.0" r="5" fill="#2563eb"/>
<text x="509.1" y="52.0" font-family="Arial" font-size="12">full_evochartcode</text>
<circle cx="660.0" cy="200.6" r="5" fill="#2563eb"/>
<text x="668.0" y="192.6" font-family="Arial" font-size="12">full_evochartcode</text>
<circle cx="129.9" cy="135.0" r="5" fill="#2563eb"/>
<text x="137.9" y="127.0" font-family="Arial" font-size="12">full_evochartcode</text>
</svg>
